<svg xmlns="http://www.w3.org/2000/svg" viewBox="0 0 264.19 272.17"><defs><style>.cls-1{fill:#f9b61f;stroke-linejoin:round;}.cls-1,.cls-2,.cls-3{stroke:#fff;stroke-linecap:round;}.cls-1,.cls-2{stroke-width:7px;}.cls-2,.cls-3{fill:none;stroke-miterlimit:10;}.cls-3{stroke-width:5px;}.cls-4{font-size:35px;fill:#333;font-family:Baloo-Regular, Baloo;}</style></defs><g id="Layer_2" data-name="Layer 2"><g id="Layer_1-2" data-name="Layer 1"><ellipse class="cls-1" cx="111.51" cy="157.99" rx="107.82" ry="110.68"/><path class="cls-2" d="M111.51,89.83c-70,0-64.66,44-64.66,44H176.18S181.51,89.83,111.51,89.83Z"/><path class="cls-2" d="M175,190.12H47s-7.46,23.52,20,33.63c9.27,3.42,26.53,2.19,44,2.19,17.22,0,37.44,1.14,46.67-2.19C185.57,213.7,175,190.12,175,190.12Z"/><rect class="cls-3" x="46.75" y="169.58" width="129.52" height="9.62" rx="4.81"/><path class="cls-2" d="M51.72,158.53c0-7.36,8.93-13.33,19.93-13.33s19.93,6,19.93,13.33"/><path class="cls-2" d="M91.58,158.53c0-7.36,8.93-13.33,19.93-13.33s19.93,6,19.93,13.33"/><path class="cls-2" d="M131.44,158.53c0-7.36,8.92-13.33,19.93-13.33s19.93,6,19.93,13.33"/></g><g id="Layer_2-2" data-name="Layer 2"><text class="cls-4" transform="matrix(0.99, -0.14, 0.14, 0.99, 87.87, 46.86)">E</text><text class="cls-4" transform="matrix(1, 0.04, -0.04, 1, 106.43, 44.12)">A</text><text class="cls-4" transform="translate(126.25 44.88) rotate(11.93)">T</text><text class="cls-4" transform="translate(144.61 49.08) rotate(18.38)"> </text><text class="cls-4" transform="translate(150.86 51.02) rotate(23.1)">-</text><text class="cls-4" transform="translate(161.8 55.79) rotate(27.8)"> </text><text class="cls-4" transform="matrix(0.82, 0.58, -0.58, 0.82, 167.68, 58.25)">D</text><text class="cls-4" transform="translate(185.77 70.91) rotate(45.92)">A</text><text class="cls-4" transform="matrix(0.6, 0.8, -0.8, 0.6, 200.25, 86.46)"> </text><text class="cls-4" transform="translate(204.3 91.61) rotate(57.65)">-</text><text class="cls-4" transform="matrix(0.46, 0.89, -0.89, 0.46, 210.6, 101.74)"> </text><text class="cls-4" transform="translate(213.99 107.15) rotate(69.39)">B</text><text class="cls-4" transform="matrix(0.17, 0.99, -0.99, 0.17, 221.42, 126.46)">U</text><text class="cls-4" transform="translate(225.19 148.37) rotate(90.97)">R</text><text class="cls-4" transform="translate(225.06 168.45) rotate(101.7)">G</text><text class="cls-4" transform="translate(220.44 190.25) rotate(112.05)">E</text><text class="cls-4" transform="translate(213.74 207.25) rotate(121.85)">R</text></g></g></svg>