<svg id="Lag_1" data-name="Lag 1" xmlns="http://www.w3.org/2000/svg" viewBox="0 0 222.65 228.36"><defs><style>.cls-1{fill:#fab71f;stroke-linejoin:round;}.cls-1,.cls-2,.cls-3{stroke:#fff;stroke-linecap:round;}.cls-1,.cls-2{stroke-width:7px;}.cls-2,.cls-3{fill:none;stroke-miterlimit:10;}.cls-3{stroke-width:5px;}</style></defs><ellipse class="cls-1" cx="111.32" cy="114.18" rx="107.82" ry="110.68"/><path class="cls-2" d="M126.84,57.09c-70,0-64.66,44-64.66,44H191.51S196.84,57.09,126.84,57.09Z" transform="translate(-15.52 -11.08)"/><path class="cls-2" d="M190.33,157.38h-128s-7.46,23.52,20,33.63c9.27,3.42,26.53,2.19,44,2.19,17.23,0,37.44,1.14,46.67-2.19C200.91,181,190.33,157.38,190.33,157.38Z" transform="translate(-15.52 -11.08)"/><rect class="cls-3" x="46.56" y="125.76" width="129.52" height="9.62" rx="4.81"/><path class="cls-2" d="M67.05,125.8c0-7.37,8.93-13.34,19.93-13.34s19.93,6,19.93,13.34" transform="translate(-15.52 -11.08)"/><path class="cls-2" d="M106.91,125.8c0-7.37,8.93-13.34,19.93-13.34s19.93,6,19.93,13.34" transform="translate(-15.52 -11.08)"/><path class="cls-2" d="M146.77,125.8c0-7.37,8.93-13.34,19.93-13.34s19.93,6,19.93,13.34" transform="translate(-15.52 -11.08)"/></svg>